<svg xmlns="http://www.w3.org/2000/svg" width="576" height="1280" viewBox="0 0 576 1280">
  <defs>
    <ellipse id="shadow" cx="32" cy="56" rx="13" ry="4" fill="#000000" opacity="0.22" />

    <g id="staff-vertical">
      <path d="M0 18 C2 9 -1 1 1 -8" fill="none" stroke="#7c3f14" stroke-width="4" stroke-linecap="round" />
      <path d="M0 18 C2 9 -1 1 1 -8" fill="none" stroke="#a16207" stroke-width="1.4" stroke-linecap="round" opacity="0.8" />
      <circle cx="1" cy="-10" r="3" fill="#84cc16" />
      <circle cx="1" cy="-10" r="1.2" fill="#dcfce7" opacity="0.9" />
    </g>
    <g id="staff-horizontal">
      <path d="M-15 1 C-5 -2 8 2 17 -2" fill="none" stroke="#7c3f14" stroke-width="4" stroke-linecap="round" />
      <path d="M-15 1 C-5 -2 8 2 17 -2" fill="none" stroke="#a16207" stroke-width="1.4" stroke-linecap="round" opacity="0.8" />
      <circle cx="18" cy="-2" r="3" fill="#84cc16" />
    </g>

    <g id="robe-down">
      <path d="M23 26 Q32 21 41 26 L45 50 Q32 55 19 50 Z" fill="#16a34a" />
      <path d="M32 25 L32 52" stroke="#14532d" stroke-width="2" stroke-linecap="round" />
      <path d="M25 30 Q32 34 39 30" fill="none" stroke="#86efac" stroke-width="2" stroke-linecap="round" opacity="0.65" />
    </g>
    <g id="robe-up">
      <path d="M23 26 Q32 21 41 26 L45 50 Q32 55 19 50 Z" fill="#15803d" />
      <path d="M22 39 Q32 44 42 39" fill="none" stroke="#14532d" stroke-width="2" stroke-linecap="round" />
      <path d="M27 27 Q32 30 37 27" fill="none" stroke="#86efac" stroke-width="2" stroke-linecap="round" opacity="0.45" />
    </g>
    <g id="robe-left">
      <path d="M23 27 Q30 22 38 26 L42 49 Q32 54 21 50 Z" fill="#16a34a" />
      <path d="M24 31 Q31 35 39 31" fill="none" stroke="#86efac" stroke-width="2" stroke-linecap="round" opacity="0.6" />
      <path d="M26 27 L24 50" stroke="#14532d" stroke-width="1.8" stroke-linecap="round" />
    </g>
    <g id="robe-right">
      <path d="M26 26 Q34 22 41 27 L43 50 Q32 54 22 49 Z" fill="#16a34a" />
      <path d="M25 31 Q33 35 40 31" fill="none" stroke="#86efac" stroke-width="2" stroke-linecap="round" opacity="0.6" />
      <path d="M38 27 L40 50" stroke="#14532d" stroke-width="1.8" stroke-linecap="round" />
    </g>

    <g id="head-down">
      <circle cx="32" cy="20" r="8" fill="#7c4a2d" />
      <path d="M24 19 Q32 9 40 19 Q36 14 32 14 Q28 14 24 19" fill="#6b21a8" />
      <circle cx="21" cy="18" r="5" fill="#7e22ce" />
      <circle cx="43" cy="18" r="5" fill="#7e22ce" />
      <circle cx="29" cy="20" r="1.2" fill="#1c120b" />
      <circle cx="35" cy="20" r="1.2" fill="#1c120b" />
      <path d="M29 24 Q32 26 35 24" fill="none" stroke="#3b2114" stroke-width="1.3" stroke-linecap="round" />
    </g>
    <g id="head-up">
      <circle cx="32" cy="20" r="8" fill="#6b4226" />
      <path d="M24 21 Q32 9 40 21 Q32 17 24 21" fill="#5b1895" />
      <circle cx="21" cy="18" r="5" fill="#6b21a8" />
      <circle cx="43" cy="18" r="5" fill="#6b21a8" />
      <path d="M28 24 Q32 27 36 24" fill="none" stroke="#4c1d95" stroke-width="1.6" stroke-linecap="round" />
    </g>
    <g id="head-left">
      <circle cx="31" cy="20" r="8" fill="#7c4a2d" />
      <path d="M24 19 Q31 10 39 19 Q32 15 24 19" fill="#6b21a8" />
      <circle cx="21" cy="18" r="5" fill="#7e22ce" />
      <circle cx="39" cy="17" r="4" fill="#6b21a8" />
      <circle cx="27" cy="20" r="1.2" fill="#1c120b" />
      <path d="M25 24 Q28 25 31 23" fill="none" stroke="#3b2114" stroke-width="1.3" stroke-linecap="round" />
    </g>
    <g id="head-right">
      <circle cx="33" cy="20" r="8" fill="#7c4a2d" />
      <path d="M25 19 Q33 10 40 19 Q32 15 25 19" fill="#6b21a8" />
      <circle cx="25" cy="17" r="4" fill="#6b21a8" />
      <circle cx="43" cy="18" r="5" fill="#7e22ce" />
      <circle cx="37" cy="20" r="1.2" fill="#1c120b" />
      <path d="M33 23 Q36 25 39 24" fill="none" stroke="#3b2114" stroke-width="1.3" stroke-linecap="round" />
    </g>

    <g id="legs-neutral">
      <rect x="26" y="48" width="4" height="6" rx="2" fill="#52321c" />
      <rect x="35" y="48" width="4" height="6" rx="2" fill="#52321c" />
    </g>
    <g id="legs-step-a">
      <rect x="24" y="47" width="4" height="7" rx="2" fill="#52321c" transform="rotate(-9 26 50)" />
      <rect x="36" y="48" width="4" height="6" rx="2" fill="#52321c" transform="rotate(8 38 51)" />
    </g>
    <g id="legs-step-b">
      <rect x="26" y="48" width="4" height="6" rx="2" fill="#52321c" transform="rotate(8 28 51)" />
      <rect x="37" y="47" width="4" height="7" rx="2" fill="#52321c" transform="rotate(-9 39 50)" />
    </g>
    <g id="arm-left"><rect x="19" y="31" width="5" height="13" rx="2.5" fill="#15803d" /></g>
    <g id="arm-right"><rect x="40" y="31" width="5" height="13" rx="2.5" fill="#15803d" /></g>
    <g id="magic-ring">
      <circle cx="32" cy="28" r="9" fill="none" stroke="#a3e635" stroke-width="2" opacity="0.65" />
      <circle cx="32" cy="28" r="3" fill="#d9f99d" opacity="0.8" />
      <path d="M32 16 L34 23 L41 24 L35 29 L37 36 L32 32 L27 36 L29 29 L23 24 L30 23 Z" fill="#84cc16" opacity="0.35" />
    </g>
    <g id="attack-spark">
      <path d="M24 40 L33 36 L41 43" fill="none" stroke="#bbf7d0" stroke-width="3" stroke-linecap="round" opacity="0.75" />
      <circle cx="41" cy="43" r="3" fill="#84cc16" opacity="0.65" />
    </g>

    <g id="child-down-idle-a"><use href="#shadow" /><use href="#legs-neutral" /><use href="#robe-down" /><use href="#arm-left" /><use href="#arm-right" /><use href="#head-down" /><use href="#staff-vertical" transform="translate(47 37) rotate(8)" /></g>
    <g id="child-down-idle-b"><use href="#shadow" /><use href="#legs-neutral" transform="translate(0 -1)" /><use href="#robe-down" transform="translate(0 -1)" /><use href="#arm-left" transform="translate(0 -1)" /><use href="#arm-right" transform="translate(0 -1)" /><use href="#head-down" transform="translate(0 -1)" /><use href="#staff-vertical" transform="translate(47 35) rotate(5)" /></g>
    <g id="child-down-walk-a"><use href="#shadow" /><use href="#legs-step-a" /><use href="#robe-down" /><use href="#arm-left" transform="rotate(8 22 33)" /><use href="#arm-right" transform="rotate(-8 42 33)" /><use href="#head-down" /><use href="#staff-vertical" transform="translate(47 36) rotate(13)" /></g>
    <g id="child-down-walk-b"><use href="#shadow" /><use href="#legs-step-b" /><use href="#robe-down" transform="translate(0 -1)" /><use href="#arm-left" transform="rotate(-8 22 33)" /><use href="#arm-right" transform="rotate(8 42 33)" /><use href="#head-down" transform="translate(0 -1)" /><use href="#staff-vertical" transform="translate(47 35) rotate(1)" /></g>
    <g id="child-down-attack-prep"><use href="#shadow" /><use href="#legs-neutral" /><use href="#robe-down" /><use href="#arm-left" /><use href="#arm-right" transform="rotate(-28 42 32)" /><use href="#head-down" /><use href="#staff-vertical" transform="translate(43 29) rotate(-42)" /></g>
    <g id="child-down-attack-swing"><use href="#shadow" /><use href="#legs-step-a" /><use href="#robe-down" /><use href="#arm-left" /><use href="#arm-right" transform="rotate(18 42 32)" /><use href="#head-down" /><use href="#staff-vertical" transform="translate(43 39) rotate(42)" /></g>
    <g id="child-down-attack-impact"><use href="#shadow" /><use href="#legs-step-b" /><use href="#robe-down" /><use href="#arm-left" /><use href="#arm-right" transform="rotate(28 42 32)" /><use href="#head-down" /><use href="#staff-vertical" transform="translate(42 43) rotate(60)" /><use href="#attack-spark" /></g>
    <g id="child-down-thrust"><use href="#shadow" /><use href="#legs-step-a" /><use href="#robe-down" /><use href="#arm-left" /><use href="#arm-right" /><use href="#head-down" /><use href="#staff-vertical" transform="translate(45 42) rotate(75)" /></g>
    <g id="child-down-cast-a"><use href="#shadow" /><use href="#legs-neutral" /><use href="#robe-down" /><use href="#arm-left" transform="rotate(-18 22 32)" /><use href="#arm-right" transform="rotate(18 42 32)" /><use href="#head-down" /><use href="#staff-vertical" transform="translate(32 31) rotate(0)" /></g>
    <g id="child-down-cast-b"><use href="#shadow" /><use href="#magic-ring" /><use href="#legs-neutral" /><use href="#robe-down" transform="translate(0 -1)" /><use href="#arm-left" transform="rotate(-28 22 32)" /><use href="#arm-right" transform="rotate(28 42 32)" /><use href="#head-down" transform="translate(0 -1)" /><use href="#staff-vertical" transform="translate(32 27) rotate(0)" /></g>
    <g id="child-down-cast-c"><use href="#shadow" /><use href="#magic-ring" transform="translate(0 -4) scale(1.15)" /><use href="#legs-neutral" /><use href="#robe-down" /><use href="#arm-left" transform="rotate(-22 22 32)" /><use href="#arm-right" transform="rotate(22 42 32)" /><use href="#head-down" /><use href="#staff-vertical" transform="translate(32 24) rotate(0)" /></g>

    <g id="child-up-idle-a"><use href="#shadow" /><use href="#staff-vertical" transform="translate(45 36) rotate(-8)" /><use href="#legs-neutral" /><use href="#robe-up" /><use href="#arm-left" /><use href="#arm-right" /><use href="#head-up" /></g>
    <g id="child-up-idle-b"><use href="#shadow" /><use href="#staff-vertical" transform="translate(45 34) rotate(-5)" /><use href="#legs-neutral" transform="translate(0 -1)" /><use href="#robe-up" transform="translate(0 -1)" /><use href="#arm-left" transform="translate(0 -1)" /><use href="#arm-right" transform="translate(0 -1)" /><use href="#head-up" transform="translate(0 -1)" /></g>
    <g id="child-up-walk-a"><use href="#shadow" /><use href="#staff-vertical" transform="translate(45 36) rotate(-13)" /><use href="#legs-step-a" /><use href="#robe-up" /><use href="#arm-left" transform="rotate(8 22 33)" /><use href="#arm-right" transform="rotate(-8 42 33)" /><use href="#head-up" /></g>
    <g id="child-up-walk-b"><use href="#shadow" /><use href="#staff-vertical" transform="translate(45 35) rotate(-1)" /><use href="#legs-step-b" /><use href="#robe-up" transform="translate(0 -1)" /><use href="#arm-left" transform="rotate(-8 22 33)" /><use href="#arm-right" transform="rotate(8 42 33)" /><use href="#head-up" transform="translate(0 -1)" /></g>
    <g id="child-up-attack-prep"><use href="#shadow" /><use href="#staff-vertical" transform="translate(43 29) rotate(42)" /><use href="#legs-neutral" /><use href="#robe-up" /><use href="#arm-left" /><use href="#arm-right" transform="rotate(-28 42 32)" /><use href="#head-up" /></g>
    <g id="child-up-attack-swing"><use href="#shadow" /><use href="#staff-vertical" transform="translate(43 28) rotate(-42)" /><use href="#legs-step-a" /><use href="#robe-up" /><use href="#arm-left" /><use href="#arm-right" transform="rotate(18 42 32)" /><use href="#head-up" /></g>
    <g id="child-up-attack-impact"><use href="#shadow" /><use href="#attack-spark" transform="translate(0 -16) rotate(180 32 40)" /><use href="#staff-vertical" transform="translate(42 21) rotate(-60)" /><use href="#legs-step-b" /><use href="#robe-up" /><use href="#arm-left" /><use href="#arm-right" transform="rotate(28 42 32)" /><use href="#head-up" /></g>
    <g id="child-up-thrust"><use href="#shadow" /><use href="#staff-vertical" transform="translate(43 23) rotate(-75)" /><use href="#legs-step-a" /><use href="#robe-up" /><use href="#arm-left" /><use href="#arm-right" /><use href="#head-up" /></g>
    <g id="child-up-cast-a"><use href="#shadow" /><use href="#staff-vertical" transform="translate(32 30) rotate(0)" /><use href="#legs-neutral" /><use href="#robe-up" /><use href="#arm-left" transform="rotate(-18 22 32)" /><use href="#arm-right" transform="rotate(18 42 32)" /><use href="#head-up" /></g>
    <g id="child-up-cast-b"><use href="#shadow" /><use href="#magic-ring" transform="translate(0 -4)" /><use href="#staff-vertical" transform="translate(32 24) rotate(0)" /><use href="#legs-neutral" /><use href="#robe-up" transform="translate(0 -1)" /><use href="#arm-left" transform="rotate(-28 22 32)" /><use href="#arm-right" transform="rotate(28 42 32)" /><use href="#head-up" transform="translate(0 -1)" /></g>
    <g id="child-up-cast-c"><use href="#shadow" /><use href="#magic-ring" transform="translate(0 -8) scale(1.15)" /><use href="#staff-vertical" transform="translate(32 22) rotate(0)" /><use href="#legs-neutral" /><use href="#robe-up" /><use href="#arm-left" transform="rotate(-22 22 32)" /><use href="#arm-right" transform="rotate(22 42 32)" /><use href="#head-up" /></g>

    <g id="child-left-idle-a"><use href="#shadow" /><use href="#legs-neutral" /><use href="#robe-left" /><use href="#arm-left" /><use href="#arm-right" /><use href="#head-left" /><use href="#staff-horizontal" transform="translate(26 35) rotate(-8)" /></g>
    <g id="child-left-idle-b"><use href="#shadow" /><use href="#legs-neutral" transform="translate(0 -1)" /><use href="#robe-left" transform="translate(0 -1)" /><use href="#arm-left" transform="translate(0 -1)" /><use href="#arm-right" transform="translate(0 -1)" /><use href="#head-left" transform="translate(0 -1)" /><use href="#staff-horizontal" transform="translate(25 34) rotate(-4)" /></g>
    <g id="child-left-walk-a"><use href="#shadow" /><use href="#legs-step-a" /><use href="#robe-left" /><use href="#arm-left" transform="rotate(-9 22 33)" /><use href="#arm-right" transform="rotate(9 42 33)" /><use href="#head-left" /><use href="#staff-horizontal" transform="translate(25 35) rotate(-14)" /></g>
    <g id="child-left-walk-b"><use href="#shadow" /><use href="#legs-step-b" /><use href="#robe-left" transform="translate(0 -1)" /><use href="#arm-left" transform="rotate(9 22 33)" /><use href="#arm-right" transform="rotate(-9 42 33)" /><use href="#head-left" transform="translate(0 -1)" /><use href="#staff-horizontal" transform="translate(26 33) rotate(4)" /></g>
    <g id="child-left-attack-prep"><use href="#shadow" /><use href="#legs-neutral" /><use href="#robe-left" /><use href="#arm-left" transform="rotate(-32 22 32)" /><use href="#arm-right" /><use href="#head-left" /><use href="#staff-horizontal" transform="translate(34 30) rotate(42)" /></g>
    <g id="child-left-attack-swing"><use href="#shadow" /><use href="#legs-step-a" /><use href="#robe-left" /><use href="#arm-left" transform="rotate(20 22 32)" /><use href="#arm-right" /><use href="#head-left" /><use href="#staff-horizontal" transform="translate(22 38) rotate(-38)" /></g>
    <g id="child-left-attack-impact"><use href="#shadow" /><use href="#legs-step-b" /><use href="#robe-left" /><use href="#arm-left" transform="rotate(30 22 32)" /><use href="#arm-right" /><use href="#head-left" /><use href="#staff-horizontal" transform="translate(20 42) rotate(-55)" /><use href="#attack-spark" transform="translate(-14 0)" /></g>
    <g id="child-left-thrust"><use href="#shadow" /><use href="#legs-step-a" /><use href="#robe-left" /><use href="#arm-left" /><use href="#arm-right" /><use href="#head-left" /><use href="#staff-horizontal" transform="translate(20 36) rotate(0)" /></g>
    <g id="child-left-cast-a"><use href="#shadow" /><use href="#legs-neutral" /><use href="#robe-left" /><use href="#arm-left" transform="rotate(-18 22 32)" /><use href="#arm-right" transform="rotate(18 42 32)" /><use href="#head-left" /><use href="#staff-vertical" transform="translate(27 31) rotate(-20)" /></g>
    <g id="child-left-cast-b"><use href="#shadow" /><use href="#magic-ring" transform="translate(-5 -2)" /><use href="#legs-neutral" /><use href="#robe-left" transform="translate(0 -1)" /><use href="#arm-left" transform="rotate(-28 22 32)" /><use href="#arm-right" transform="rotate(28 42 32)" /><use href="#head-left" transform="translate(0 -1)" /><use href="#staff-vertical" transform="translate(27 25) rotate(-10)" /></g>
    <g id="child-left-cast-c"><use href="#shadow" /><use href="#magic-ring" transform="translate(-8 -5) scale(1.15)" /><use href="#legs-neutral" /><use href="#robe-left" /><use href="#arm-left" transform="rotate(-22 22 32)" /><use href="#arm-right" transform="rotate(22 42 32)" /><use href="#head-left" /><use href="#staff-vertical" transform="translate(27 22) rotate(-6)" /></g>

    <g id="child-right-idle-a"><use href="#shadow" /><use href="#legs-neutral" /><use href="#robe-right" /><use href="#arm-left" /><use href="#arm-right" /><use href="#head-right" /><use href="#staff-horizontal" transform="translate(38 35) rotate(188)" /></g>
    <g id="child-right-idle-b"><use href="#shadow" /><use href="#legs-neutral" transform="translate(0 -1)" /><use href="#robe-right" transform="translate(0 -1)" /><use href="#arm-left" transform="translate(0 -1)" /><use href="#arm-right" transform="translate(0 -1)" /><use href="#head-right" transform="translate(0 -1)" /><use href="#staff-horizontal" transform="translate(39 34) rotate(184)" /></g>
    <g id="child-right-walk-a"><use href="#shadow" /><use href="#legs-step-a" /><use href="#robe-right" /><use href="#arm-left" transform="rotate(9 22 33)" /><use href="#arm-right" transform="rotate(-9 42 33)" /><use href="#head-right" /><use href="#staff-horizontal" transform="translate(39 35) rotate(194)" /></g>
    <g id="child-right-walk-b"><use href="#shadow" /><use href="#legs-step-b" /><use href="#robe-right" transform="translate(0 -1)" /><use href="#arm-left" transform="rotate(-9 22 33)" /><use href="#arm-right" transform="rotate(9 42 33)" /><use href="#head-right" transform="translate(0 -1)" /><use href="#staff-horizontal" transform="translate(38 33) rotate(176)" /></g>
    <g id="child-right-attack-prep"><use href="#shadow" /><use href="#legs-neutral" /><use href="#robe-right" /><use href="#arm-left" /><use href="#arm-right" transform="rotate(32 42 32)" /><use href="#head-right" /><use href="#staff-horizontal" transform="translate(30 30) rotate(138)" /></g>
    <g id="child-right-attack-swing"><use href="#shadow" /><use href="#legs-step-a" /><use href="#robe-right" /><use href="#arm-left" /><use href="#arm-right" transform="rotate(-20 42 32)" /><use href="#head-right" /><use href="#staff-horizontal" transform="translate(42 38) rotate(218)" /></g>
    <g id="child-right-attack-impact"><use href="#shadow" /><use href="#legs-step-b" /><use href="#robe-right" /><use href="#arm-left" /><use href="#arm-right" transform="rotate(-30 42 32)" /><use href="#head-right" /><use href="#staff-horizontal" transform="translate(44 42) rotate(235)" /><use href="#attack-spark" transform="translate(14 0) scale(-1 1) translate(-64 0)" /></g>
    <g id="child-right-thrust"><use href="#shadow" /><use href="#legs-step-a" /><use href="#robe-right" /><use href="#arm-left" /><use href="#arm-right" /><use href="#head-right" /><use href="#staff-horizontal" transform="translate(44 36) rotate(180)" /></g>
    <g id="child-right-cast-a"><use href="#shadow" /><use href="#legs-neutral" /><use href="#robe-right" /><use href="#arm-left" transform="rotate(-18 22 32)" /><use href="#arm-right" transform="rotate(18 42 32)" /><use href="#head-right" /><use href="#staff-vertical" transform="translate(37 31) rotate(20)" /></g>
    <g id="child-right-cast-b"><use href="#shadow" /><use href="#magic-ring" transform="translate(5 -2)" /><use href="#legs-neutral" /><use href="#robe-right" transform="translate(0 -1)" /><use href="#arm-left" transform="rotate(-28 22 32)" /><use href="#arm-right" transform="rotate(28 42 32)" /><use href="#head-right" transform="translate(0 -1)" /><use href="#staff-vertical" transform="translate(37 25) rotate(10)" /></g>
    <g id="child-right-cast-c"><use href="#shadow" /><use href="#magic-ring" transform="translate(8 -5) scale(1.15)" /><use href="#legs-neutral" /><use href="#robe-right" /><use href="#arm-left" transform="rotate(-22 22 32)" /><use href="#arm-right" transform="rotate(22 42 32)" /><use href="#head-right" /><use href="#staff-vertical" transform="translate(37 22) rotate(6)" /></g>
  </defs>

  <svg id="frame-idle-up-0" x="0" y="0" width="64" height="64" viewBox="0 0 64 64" overflow="hidden"><use href="#child-up-idle-a" /></svg>
  <svg id="frame-idle-up-1" x="64" y="0" width="64" height="64" viewBox="0 0 64 64" overflow="hidden"><use href="#child-up-idle-b" /></svg>
  <svg id="frame-idle-left-0" x="0" y="64" width="64" height="64" viewBox="0 0 64 64" overflow="hidden"><use href="#child-left-idle-a" /></svg>
  <svg id="frame-idle-left-1" x="64" y="64" width="64" height="64" viewBox="0 0 64 64" overflow="hidden"><use href="#child-left-idle-b" /></svg>
  <svg id="frame-idle-down-0" x="0" y="128" width="64" height="64" viewBox="0 0 64 64" overflow="hidden"><use href="#child-down-idle-a" /></svg>
  <svg id="frame-idle-down-1" x="64" y="128" width="64" height="64" viewBox="0 0 64 64" overflow="hidden"><use href="#child-down-idle-b" /></svg>
  <svg id="frame-idle-right-0" x="0" y="192" width="64" height="64" viewBox="0 0 64 64" overflow="hidden"><use href="#child-right-idle-a" /></svg>
  <svg id="frame-idle-right-1" x="64" y="192" width="64" height="64" viewBox="0 0 64 64" overflow="hidden"><use href="#child-right-idle-b" /></svg>

  <svg id="frame-walking-up-0" x="0" y="256" width="64" height="64" viewBox="0 0 64 64" overflow="hidden"><use href="#child-up-walk-a" /></svg>
  <svg id="frame-walking-up-1" x="64" y="256" width="64" height="64" viewBox="0 0 64 64" overflow="hidden"><use href="#child-up-idle-a" /></svg>
  <svg id="frame-walking-up-2" x="128" y="256" width="64" height="64" viewBox="0 0 64 64" overflow="hidden"><use href="#child-up-walk-b" /></svg>
  <svg id="frame-walking-up-3" x="192" y="256" width="64" height="64" viewBox="0 0 64 64" overflow="hidden"><use href="#child-up-idle-b" /></svg>
  <svg id="frame-walking-up-4" x="256" y="256" width="64" height="64" viewBox="0 0 64 64" overflow="hidden"><use href="#child-up-walk-a" transform="translate(0 -1)" /></svg>
  <svg id="frame-walking-up-5" x="320" y="256" width="64" height="64" viewBox="0 0 64 64" overflow="hidden"><use href="#child-up-idle-a" /></svg>
  <svg id="frame-walking-up-6" x="384" y="256" width="64" height="64" viewBox="0 0 64 64" overflow="hidden"><use href="#child-up-walk-b" transform="translate(0 -1)" /></svg>
  <svg id="frame-walking-up-7" x="448" y="256" width="64" height="64" viewBox="0 0 64 64" overflow="hidden"><use href="#child-up-idle-b" /></svg>
  <svg id="frame-walking-up-8" x="512" y="256" width="64" height="64" viewBox="0 0 64 64" overflow="hidden"><use href="#child-up-walk-a" /></svg>
  <svg id="frame-walking-left-0" x="0" y="320" width="64" height="64" viewBox="0 0 64 64" overflow="hidden"><use href="#child-left-walk-a" /></svg>
  <svg id="frame-walking-left-1" x="64" y="320" width="64" height="64" viewBox="0 0 64 64" overflow="hidden"><use href="#child-left-idle-a" /></svg>
  <svg id="frame-walking-left-2" x="128" y="320" width="64" height="64" viewBox="0 0 64 64" overflow="hidden"><use href="#child-left-walk-b" /></svg>
  <svg id="frame-walking-left-3" x="192" y="320" width="64" height="64" viewBox="0 0 64 64" overflow="hidden"><use href="#child-left-idle-b" /></svg>
  <svg id="frame-walking-left-4" x="256" y="320" width="64" height="64" viewBox="0 0 64 64" overflow="hidden"><use href="#child-left-walk-a" transform="translate(0 -1)" /></svg>
  <svg id="frame-walking-left-5" x="320" y="320" width="64" height="64" viewBox="0 0 64 64" overflow="hidden"><use href="#child-left-idle-a" /></svg>
  <svg id="frame-walking-left-6" x="384" y="320" width="64" height="64" viewBox="0 0 64 64" overflow="hidden"><use href="#child-left-walk-b" transform="translate(0 -1)" /></svg>
  <svg id="frame-walking-left-7" x="448" y="320" width="64" height="64" viewBox="0 0 64 64" overflow="hidden"><use href="#child-left-idle-b" /></svg>
  <svg id="frame-walking-left-8" x="512" y="320" width="64" height="64" viewBox="0 0 64 64" overflow="hidden"><use href="#child-left-walk-a" /></svg>
  <svg id="frame-walking-down-0" x="0" y="384" width="64" height="64" viewBox="0 0 64 64" overflow="hidden"><use href="#child-down-walk-a" /></svg>
  <svg id="frame-walking-down-1" x="64" y="384" width="64" height="64" viewBox="0 0 64 64" overflow="hidden"><use href="#child-down-idle-a" /></svg>
  <svg id="frame-walking-down-2" x="128" y="384" width="64" height="64" viewBox="0 0 64 64" overflow="hidden"><use href="#child-down-walk-b" /></svg>
  <svg id="frame-walking-down-3" x="192" y="384" width="64" height="64" viewBox="0 0 64 64" overflow="hidden"><use href="#child-down-idle-b" /></svg>
  <svg id="frame-walking-down-4" x="256" y="384" width="64" height="64" viewBox="0 0 64 64" overflow="hidden"><use href="#child-down-walk-a" transform="translate(0 -1)" /></svg>
  <svg id="frame-walking-down-5" x="320" y="384" width="64" height="64" viewBox="0 0 64 64" overflow="hidden"><use href="#child-down-idle-a" /></svg>
  <svg id="frame-walking-down-6" x="384" y="384" width="64" height="64" viewBox="0 0 64 64" overflow="hidden"><use href="#child-down-walk-b" transform="translate(0 -1)" /></svg>
  <svg id="frame-walking-down-7" x="448" y="384" width="64" height="64" viewBox="0 0 64 64" overflow="hidden"><use href="#child-down-idle-b" /></svg>
  <svg id="frame-walking-down-8" x="512" y="384" width="64" height="64" viewBox="0 0 64 64" overflow="hidden"><use href="#child-down-walk-a" /></svg>
  <svg id="frame-walking-right-0" x="0" y="448" width="64" height="64" viewBox="0 0 64 64" overflow="hidden"><use href="#child-right-walk-a" /></svg>
  <svg id="frame-walking-right-1" x="64" y="448" width="64" height="64" viewBox="0 0 64 64" overflow="hidden"><use href="#child-right-idle-a" /></svg>
  <svg id="frame-walking-right-2" x="128" y="448" width="64" height="64" viewBox="0 0 64 64" overflow="hidden"><use href="#child-right-walk-b" /></svg>
  <svg id="frame-walking-right-3" x="192" y="448" width="64" height="64" viewBox="0 0 64 64" overflow="hidden"><use href="#child-right-idle-b" /></svg>
  <svg id="frame-walking-right-4" x="256" y="448" width="64" height="64" viewBox="0 0 64 64" overflow="hidden"><use href="#child-right-walk-a" transform="translate(0 -1)" /></svg>
  <svg id="frame-walking-right-5" x="320" y="448" width="64" height="64" viewBox="0 0 64 64" overflow="hidden"><use href="#child-right-idle-a" /></svg>
  <svg id="frame-walking-right-6" x="384" y="448" width="64" height="64" viewBox="0 0 64 64" overflow="hidden"><use href="#child-right-walk-b" transform="translate(0 -1)" /></svg>
  <svg id="frame-walking-right-7" x="448" y="448" width="64" height="64" viewBox="0 0 64 64" overflow="hidden"><use href="#child-right-idle-b" /></svg>
  <svg id="frame-walking-right-8" x="512" y="448" width="64" height="64" viewBox="0 0 64 64" overflow="hidden"><use href="#child-right-walk-a" /></svg>

  <svg id="frame-attacking1-up-0" x="0" y="512" width="64" height="64" viewBox="0 0 64 64" overflow="hidden"><use href="#child-up-idle-a" /></svg>
  <svg id="frame-attacking1-up-1" x="64" y="512" width="64" height="64" viewBox="0 0 64 64" overflow="hidden"><use href="#child-up-attack-prep" /></svg>
  <svg id="frame-attacking1-up-2" x="128" y="512" width="64" height="64" viewBox="0 0 64 64" overflow="hidden"><use href="#child-up-attack-prep" transform="translate(0 -1)" /></svg>
  <svg id="frame-attacking1-up-3" x="192" y="512" width="64" height="64" viewBox="0 0 64 64" overflow="hidden"><use href="#child-up-attack-swing" /></svg>
  <svg id="frame-attacking1-up-4" x="256" y="512" width="64" height="64" viewBox="0 0 64 64" overflow="hidden"><use href="#child-up-attack-impact" /></svg>
  <svg id="frame-attacking1-up-5" x="320" y="512" width="64" height="64" viewBox="0 0 64 64" overflow="hidden"><use href="#child-up-attack-swing" /></svg>
  <svg id="frame-attacking1-up-6" x="384" y="512" width="64" height="64" viewBox="0 0 64 64" overflow="hidden"><use href="#child-up-attack-prep" /></svg>
  <svg id="frame-attacking1-up-7" x="448" y="512" width="64" height="64" viewBox="0 0 64 64" overflow="hidden"><use href="#child-up-idle-b" /></svg>
  <svg id="frame-attacking1-left-0" x="0" y="576" width="64" height="64" viewBox="0 0 64 64" overflow="hidden"><use href="#child-left-idle-a" /></svg>
  <svg id="frame-attacking1-left-1" x="64" y="576" width="64" height="64" viewBox="0 0 64 64" overflow="hidden"><use href="#child-left-attack-prep" /></svg>
  <svg id="frame-attacking1-left-2" x="128" y="576" width="64" height="64" viewBox="0 0 64 64" overflow="hidden"><use href="#child-left-attack-prep" transform="translate(0 -1)" /></svg>
  <svg id="frame-attacking1-left-3" x="192" y="576" width="64" height="64" viewBox="0 0 64 64" overflow="hidden"><use href="#child-left-attack-swing" /></svg>
  <svg id="frame-attacking1-left-4" x="256" y="576" width="64" height="64" viewBox="0 0 64 64" overflow="hidden"><use href="#child-left-attack-impact" /></svg>
  <svg id="frame-attacking1-left-5" x="320" y="576" width="64" height="64" viewBox="0 0 64 64" overflow="hidden"><use href="#child-left-attack-swing" /></svg>
  <svg id="frame-attacking1-left-6" x="384" y="576" width="64" height="64" viewBox="0 0 64 64" overflow="hidden"><use href="#child-left-attack-prep" /></svg>
  <svg id="frame-attacking1-left-7" x="448" y="576" width="64" height="64" viewBox="0 0 64 64" overflow="hidden"><use href="#child-left-idle-b" /></svg>
  <svg id="frame-attacking1-down-0" x="0" y="640" width="64" height="64" viewBox="0 0 64 64" overflow="hidden"><use href="#child-down-idle-a" /></svg>
  <svg id="frame-attacking1-down-1" x="64" y="640" width="64" height="64" viewBox="0 0 64 64" overflow="hidden"><use href="#child-down-attack-prep" /></svg>
  <svg id="frame-attacking1-down-2" x="128" y="640" width="64" height="64" viewBox="0 0 64 64" overflow="hidden"><use href="#child-down-attack-prep" transform="translate(0 -1)" /></svg>
  <svg id="frame-attacking1-down-3" x="192" y="640" width="64" height="64" viewBox="0 0 64 64" overflow="hidden"><use href="#child-down-attack-swing" /></svg>
  <svg id="frame-attacking1-down-4" x="256" y="640" width="64" height="64" viewBox="0 0 64 64" overflow="hidden"><use href="#child-down-attack-impact" /></svg>
  <svg id="frame-attacking1-down-5" x="320" y="640" width="64" height="64" viewBox="0 0 64 64" overflow="hidden"><use href="#child-down-attack-swing" /></svg>
  <svg id="frame-attacking1-down-6" x="384" y="640" width="64" height="64" viewBox="0 0 64 64" overflow="hidden"><use href="#child-down-attack-prep" /></svg>
  <svg id="frame-attacking1-down-7" x="448" y="640" width="64" height="64" viewBox="0 0 64 64" overflow="hidden"><use href="#child-down-idle-b" /></svg>
  <svg id="frame-attacking1-right-0" x="0" y="704" width="64" height="64" viewBox="0 0 64 64" overflow="hidden"><use href="#child-right-idle-a" /></svg>
  <svg id="frame-attacking1-right-1" x="64" y="704" width="64" height="64" viewBox="0 0 64 64" overflow="hidden"><use href="#child-right-attack-prep" /></svg>
  <svg id="frame-attacking1-right-2" x="128" y="704" width="64" height="64" viewBox="0 0 64 64" overflow="hidden"><use href="#child-right-attack-prep" transform="translate(0 -1)" /></svg>
  <svg id="frame-attacking1-right-3" x="192" y="704" width="64" height="64" viewBox="0 0 64 64" overflow="hidden"><use href="#child-right-attack-swing" /></svg>
  <svg id="frame-attacking1-right-4" x="256" y="704" width="64" height="64" viewBox="0 0 64 64" overflow="hidden"><use href="#child-right-attack-impact" /></svg>
  <svg id="frame-attacking1-right-5" x="320" y="704" width="64" height="64" viewBox="0 0 64 64" overflow="hidden"><use href="#child-right-attack-swing" /></svg>
  <svg id="frame-attacking1-right-6" x="384" y="704" width="64" height="64" viewBox="0 0 64 64" overflow="hidden"><use href="#child-right-attack-prep" /></svg>
  <svg id="frame-attacking1-right-7" x="448" y="704" width="64" height="64" viewBox="0 0 64 64" overflow="hidden"><use href="#child-right-idle-b" /></svg>

  <svg id="frame-attacking2-up-0" x="0" y="768" width="64" height="64" viewBox="0 0 64 64" overflow="hidden"><use href="#child-up-attack-prep" /></svg>
  <svg id="frame-attacking2-up-1" x="64" y="768" width="64" height="64" viewBox="0 0 64 64" overflow="hidden"><use href="#child-up-thrust" /></svg>
  <svg id="frame-attacking2-up-2" x="128" y="768" width="64" height="64" viewBox="0 0 64 64" overflow="hidden"><use href="#child-up-thrust" transform="translate(0 -2)" /></svg>
  <svg id="frame-attacking2-up-3" x="192" y="768" width="64" height="64" viewBox="0 0 64 64" overflow="hidden"><use href="#child-up-attack-impact" /></svg>
  <svg id="frame-attacking2-up-4" x="256" y="768" width="64" height="64" viewBox="0 0 64 64" overflow="hidden"><use href="#child-up-attack-prep" /></svg>
  <svg id="frame-attacking2-up-5" x="320" y="768" width="64" height="64" viewBox="0 0 64 64" overflow="hidden"><use href="#child-up-idle-b" /></svg>
  <svg id="frame-attacking2-left-0" x="0" y="832" width="64" height="64" viewBox="0 0 64 64" overflow="hidden"><use href="#child-left-attack-prep" /></svg>
  <svg id="frame-attacking2-left-1" x="64" y="832" width="64" height="64" viewBox="0 0 64 64" overflow="hidden"><use href="#child-left-thrust" /></svg>
  <svg id="frame-attacking2-left-2" x="128" y="832" width="64" height="64" viewBox="0 0 64 64" overflow="hidden"><use href="#child-left-thrust" transform="translate(-2 0)" /></svg>
  <svg id="frame-attacking2-left-3" x="192" y="832" width="64" height="64" viewBox="0 0 64 64" overflow="hidden"><use href="#child-left-attack-impact" /></svg>
  <svg id="frame-attacking2-left-4" x="256" y="832" width="64" height="64" viewBox="0 0 64 64" overflow="hidden"><use href="#child-left-attack-prep" /></svg>
  <svg id="frame-attacking2-left-5" x="320" y="832" width="64" height="64" viewBox="0 0 64 64" overflow="hidden"><use href="#child-left-idle-b" /></svg>
  <svg id="frame-attacking2-down-0" x="0" y="896" width="64" height="64" viewBox="0 0 64 64" overflow="hidden"><use href="#child-down-attack-prep" /></svg>
  <svg id="frame-attacking2-down-1" x="64" y="896" width="64" height="64" viewBox="0 0 64 64" overflow="hidden"><use href="#child-down-thrust" /></svg>
  <svg id="frame-attacking2-down-2" x="128" y="896" width="64" height="64" viewBox="0 0 64 64" overflow="hidden"><use href="#child-down-thrust" transform="translate(0 2)" /></svg>
  <svg id="frame-attacking2-down-3" x="192" y="896" width="64" height="64" viewBox="0 0 64 64" overflow="hidden"><use href="#child-down-attack-impact" /></svg>
  <svg id="frame-attacking2-down-4" x="256" y="896" width="64" height="64" viewBox="0 0 64 64" overflow="hidden"><use href="#child-down-attack-prep" /></svg>
  <svg id="frame-attacking2-down-5" x="320" y="896" width="64" height="64" viewBox="0 0 64 64" overflow="hidden"><use href="#child-down-idle-b" /></svg>
  <svg id="frame-attacking2-right-0" x="0" y="960" width="64" height="64" viewBox="0 0 64 64" overflow="hidden"><use href="#child-right-attack-prep" /></svg>
  <svg id="frame-attacking2-right-1" x="64" y="960" width="64" height="64" viewBox="0 0 64 64" overflow="hidden"><use href="#child-right-thrust" /></svg>
  <svg id="frame-attacking2-right-2" x="128" y="960" width="64" height="64" viewBox="0 0 64 64" overflow="hidden"><use href="#child-right-thrust" transform="translate(2 0)" /></svg>
  <svg id="frame-attacking2-right-3" x="192" y="960" width="64" height="64" viewBox="0 0 64 64" overflow="hidden"><use href="#child-right-attack-impact" /></svg>
  <svg id="frame-attacking2-right-4" x="256" y="960" width="64" height="64" viewBox="0 0 64 64" overflow="hidden"><use href="#child-right-attack-prep" /></svg>
  <svg id="frame-attacking2-right-5" x="320" y="960" width="64" height="64" viewBox="0 0 64 64" overflow="hidden"><use href="#child-right-idle-b" /></svg>

  <svg id="frame-casting-up-0" x="0" y="1024" width="64" height="64" viewBox="0 0 64 64" overflow="hidden"><use href="#child-up-cast-a" /></svg>
  <svg id="frame-casting-up-1" x="64" y="1024" width="64" height="64" viewBox="0 0 64 64" overflow="hidden"><use href="#child-up-cast-a" transform="translate(0 -1)" /></svg>
  <svg id="frame-casting-up-2" x="128" y="1024" width="64" height="64" viewBox="0 0 64 64" overflow="hidden"><use href="#child-up-cast-b" /></svg>
  <svg id="frame-casting-up-3" x="192" y="1024" width="64" height="64" viewBox="0 0 64 64" overflow="hidden"><use href="#child-up-cast-c" /></svg>
  <svg id="frame-casting-up-4" x="256" y="1024" width="64" height="64" viewBox="0 0 64 64" overflow="hidden"><use href="#child-up-cast-b" transform="translate(0 -1)" /></svg>
  <svg id="frame-casting-up-5" x="320" y="1024" width="64" height="64" viewBox="0 0 64 64" overflow="hidden"><use href="#child-up-cast-a" /></svg>
  <svg id="frame-casting-up-6" x="384" y="1024" width="64" height="64" viewBox="0 0 64 64" overflow="hidden"><use href="#child-up-idle-b" /></svg>
  <svg id="frame-casting-left-0" x="0" y="1088" width="64" height="64" viewBox="0 0 64 64" overflow="hidden"><use href="#child-left-cast-a" /></svg>
  <svg id="frame-casting-left-1" x="64" y="1088" width="64" height="64" viewBox="0 0 64 64" overflow="hidden"><use href="#child-left-cast-a" transform="translate(0 -1)" /></svg>
  <svg id="frame-casting-left-2" x="128" y="1088" width="64" height="64" viewBox="0 0 64 64" overflow="hidden"><use href="#child-left-cast-b" /></svg>
  <svg id="frame-casting-left-3" x="192" y="1088" width="64" height="64" viewBox="0 0 64 64" overflow="hidden"><use href="#child-left-cast-c" /></svg>
  <svg id="frame-casting-left-4" x="256" y="1088" width="64" height="64" viewBox="0 0 64 64" overflow="hidden"><use href="#child-left-cast-b" transform="translate(0 -1)" /></svg>
  <svg id="frame-casting-left-5" x="320" y="1088" width="64" height="64" viewBox="0 0 64 64" overflow="hidden"><use href="#child-left-cast-a" /></svg>
  <svg id="frame-casting-left-6" x="384" y="1088" width="64" height="64" viewBox="0 0 64 64" overflow="hidden"><use href="#child-left-idle-b" /></svg>
  <svg id="frame-casting-down-0" x="0" y="1152" width="64" height="64" viewBox="0 0 64 64" overflow="hidden"><use href="#child-down-cast-a" /></svg>
  <svg id="frame-casting-down-1" x="64" y="1152" width="64" height="64" viewBox="0 0 64 64" overflow="hidden"><use href="#child-down-cast-a" transform="translate(0 -1)" /></svg>
  <svg id="frame-casting-down-2" x="128" y="1152" width="64" height="64" viewBox="0 0 64 64" overflow="hidden"><use href="#child-down-cast-b" /></svg>
  <svg id="frame-casting-down-3" x="192" y="1152" width="64" height="64" viewBox="0 0 64 64" overflow="hidden"><use href="#child-down-cast-c" /></svg>
  <svg id="frame-casting-down-4" x="256" y="1152" width="64" height="64" viewBox="0 0 64 64" overflow="hidden"><use href="#child-down-cast-b" transform="translate(0 -1)" /></svg>
  <svg id="frame-casting-down-5" x="320" y="1152" width="64" height="64" viewBox="0 0 64 64" overflow="hidden"><use href="#child-down-cast-a" /></svg>
  <svg id="frame-casting-down-6" x="384" y="1152" width="64" height="64" viewBox="0 0 64 64" overflow="hidden"><use href="#child-down-idle-b" /></svg>
  <svg id="frame-casting-right-0" x="0" y="1216" width="64" height="64" viewBox="0 0 64 64" overflow="hidden"><use href="#child-right-cast-a" /></svg>
  <svg id="frame-casting-right-1" x="64" y="1216" width="64" height="64" viewBox="0 0 64 64" overflow="hidden"><use href="#child-right-cast-a" transform="translate(0 -1)" /></svg>
  <svg id="frame-casting-right-2" x="128" y="1216" width="64" height="64" viewBox="0 0 64 64" overflow="hidden"><use href="#child-right-cast-b" /></svg>
  <svg id="frame-casting-right-3" x="192" y="1216" width="64" height="64" viewBox="0 0 64 64" overflow="hidden"><use href="#child-right-cast-c" /></svg>
  <svg id="frame-casting-right-4" x="256" y="1216" width="64" height="64" viewBox="0 0 64 64" overflow="hidden"><use href="#child-right-cast-b" transform="translate(0 -1)" /></svg>
  <svg id="frame-casting-right-5" x="320" y="1216" width="64" height="64" viewBox="0 0 64 64" overflow="hidden"><use href="#child-right-cast-a" /></svg>
  <svg id="frame-casting-right-6" x="384" y="1216" width="64" height="64" viewBox="0 0 64 64" overflow="hidden"><use href="#child-right-idle-b" /></svg>
</svg>
